<svg width="256" height="256" viewBox="0 0 64 64" xmlns="http://www.w3.org/2000/svg">
  <!-- macOS Apple Logo -->
  <g transform="translate(12, 8)">
    <path d="M8 0 Q12 0 12 4 Q12 8 8 12 Q4 12 0 8 Q0 4 4 0 Q6 0 8 0 Z M6 2 Q8 2 10 4 Q10 6 8 8 Q6 8 4 6 Q4 4 6 2 Z" 
          fill="#c0c0c0" stroke="#a3a3a3" stroke-width="0.5"/>
    <!-- Apple bite -->
    <circle cx="9" cy="3" r="1.5" fill="#ffffff"/>
    <!-- Apple leaf -->
    <ellipse cx="9" cy="1" rx="1" ry="0.5" fill="#22c55e"/>
  </g>
  
  <!-- Windows Logo -->
  <g transform="translate(26, 8)">
    <rect x="0" y="0" width="6" height="6" fill="#0ea5e9" stroke="#0284c7" stroke-width="0.5"/>
    <rect x="7" y="0" width="6" height="6" fill="#0ea5e9" stroke="#0284c7" stroke-width="0.5"/>
    <rect x="0" y="7" width="6" height="6" fill="#0ea5e9" stroke="#0284c7" stroke-width="0.5"/>
    <rect x="7" y="7" width="6" height="6" fill="#0ea5e9" stroke="#0284c7" stroke-width="0.5"/>
  </g>
  
  <!-- Linux Penguin (Tux) -->
  <g transform="translate(46, 6)">
    <!-- Penguin body -->
    <ellipse cx="4" cy="8" rx="4" ry="6" fill="#ffffff" stroke="#e5e7eb" stroke-width="0.5"/>
    <!-- Penguin belly -->
    <ellipse cx="4" cy="9" rx="2.5" ry="4" fill="#f8fafc"/>
    <!-- Penguin head -->
    <circle cx="4" cy="3" r="3" fill="#ffffff" stroke="#e5e7eb" stroke-width="0.5"/>
    <!-- Beak -->
    <path d="M4 4 L5 5 L4 6 L3 5 Z" fill="#f97316"/>
    <!-- Eyes -->
    <circle cx="3" cy="2.5" r="0.5" fill="#1f2937"/>
    <circle cx="5" cy="2.5" r="0.5" fill="#1f2937"/>
    <!-- Feet -->
    <ellipse cx="2" cy="14" rx="1" ry="0.8" fill="#f97316"/>
    <ellipse cx="6" cy="14" rx="1" ry="0.8" fill="#f97316"/>
  </g>
  
  <!-- Connection lines showing unity -->
  <g stroke="#6b7280" stroke-width="1" fill="none" opacity="0.4">
    <path d="M20 16 Q32 20 44 16"/>
    <path d="M20 16 Q32 12 44 16"/>
  </g>
  

  

  

</svg>
