<svg width="64" height="64" viewBox="0 0 64 64" xmlns="http://www.w3.org/2000/svg">
  <!-- Lock Body -->
  <rect x="20" y="28" width="24" height="20" rx="3" ry="3" 
        fill="#1e40af" stroke="#1d4ed8" stroke-width="2"/>
  
  <!-- Lock Shackle -->
  <path d="M26 28 Q26 18 32 18 Q38 18 38 28" 
        fill="none" stroke="#1d4ed8" stroke-width="3"/>
  
  <!-- Keyhole -->
  <circle cx="32" cy="36" r="3" fill="#fbbf24"/>
  <rect x="31" y="36" width="2" height="6" fill="#fbbf24"/>
  
  <!-- Encryption Key -->
  <g transform="translate(48, 20)">
    <!-- Key head -->
    <circle cx="0" cy="0" r="4" fill="#cccccc" stroke="#999999" stroke-width="1"/>
    <circle cx="0" cy="0" r="2" fill="none" stroke="#059669" stroke-width="1"/>
    
    <!-- Key shaft -->
    <rect x="-12" y="-1" width="12" height="2" fill="#cccccc"/>
    
    <!-- Key teeth -->
    <rect x="-12" y="-3" width="3" height="2" fill="#cccccc"/>
    <rect x="-8" y="-3" width="2" height="2" fill="#cccccc"/>
    <rect x="-5" y="-3" width="3" height="2" fill="#cccccc"/>
  </g>
  
  <!-- Encryption arrows/flow -->
  <g fill="none" stroke="none" stroke-width="2" opacity="0.7">
    <!-- Circular encryption flow -->
    <path d="M15 32 Q10 32 10 38 Q10 44 15 44">

    </path>
    <path d="M49 32 Q54 32 54 38 Q54 44 49 44">

    </path>
  </g>
  
  <!-- Data bits/encryption particles -->
  <g fill="none" opacity="0.6">
    <circle cx="12" cy="35" r="1">

    </circle>
    <circle cx="52" cy="35" r="1">

    </circle>
    <circle cx="14" cy="41" r="0.8">

    </circle>
    <circle cx="50" cy="41" r="0.8">

    </circle>
  </g>
  
  <!-- Shield overlay for security -->
  <g opacity="0.3">
    <path d="M32 12 L38 16 L38 24 Q38 28 32 30 Q26 28 26 24 L26 16 Z" 
          fill="#cccccc" stroke="#999999" stroke-width="1"/>
  </g>
</svg>
