<svg width="64" height="64" viewBox="0 0 64 64" xmlns="http://www.w3.org/2000/svg">
  <!-- Microprocessor Package -->
  <rect x="16" y="16" width="32" height="32" rx="2" ry="2" 
        fill="#1f2937" stroke="#374151" stroke-width="2"/>
  
  <!-- CPU Die/Core -->
  <rect x="22" y="22" width="20" height="20" rx="1" ry="1" 
        fill="#0ea5e9" stroke="#0284c7" stroke-width="1"/>
  
  <!-- Security Shield Overlay -->
  <path d="M32 24 L36 26 L36 32 Q36 36 32 38 Q28 36 28 32 L28 26 Z" 
        fill="#10b981" stroke="#059669" stroke-width="1" opacity="0.9"/>
  
  <!-- CPU Pins/Contacts -->
  <!-- Top pins -->
  <g fill="#6b7280">
    <rect x="20" y="12" width="1" height="4"/>
    <rect x="24" y="12" width="1" height="4"/>
    <rect x="28" y="12" width="1" height="4"/>
    <rect x="32" y="12" width="1" height="4"/>
    <rect x="36" y="12" width="1" height="4"/>
    <rect x="40" y="12" width="1" height="4"/>
    <rect x="44" y="12" width="1" height="4"/>
  </g>
  
  <!-- Bottom pins -->
  <g fill="#6b7280">
    <rect x="20" y="48" width="1" height="4"/>
    <rect x="24" y="48" width="1" height="4"/>
    <rect x="28" y="48" width="1" height="4"/>
    <rect x="32" y="48" width="1" height="4"/>
    <rect x="36" y="48" width="1" height="4"/>
    <rect x="40" y="48" width="1" height="4"/>
    <rect x="44" y="48" width="1" height="4"/>
  </g>
  
  <!-- Left pins -->
  <g fill="#6b7280">
    <rect x="12" y="20" width="4" height="1"/>
    <rect x="12" y="24" width="4" height="1"/>
    <rect x="12" y="28" width="4" height="1"/>
    <rect x="12" y="32" width="4" height="1"/>
    <rect x="12" y="36" width="4" height="1"/>
    <rect x="12" y="40" width="4" height="1"/>
    <rect x="12" y="44" width="4" height="1"/>
  </g>
  
  <!-- Right pins -->
  <g fill="#6b7280">
    <rect x="48" y="20" width="4" height="1"/>
    <rect x="48" y="24" width="4" height="1"/>
    <rect x="48" y="28" width="4" height="1"/>
    <rect x="48" y="32" width="4" height="1"/>
    <rect x="48" y="36" width="4" height="1"/>
    <rect x="48" y="40" width="4" height="1"/>
    <rect x="48" y="44" width="4" height="1"/>
  </g>
  
  <!-- Circuit traces on die -->
  <g stroke="#0284c7" stroke-width="0.5" fill="none" opacity="0.7">
    <path d="M24 24 L40 24"/>
    <path d="M24 28 L40 28"/>
    <path d="M24 32 L40 32"/>
    <path d="M24 36 L40 36"/>
    <path d="M24 40 L40 40"/>
    <path d="M24 24 L24 40"/>
    <path d="M28 24 L28 40"/>
    <path d="M32 24 L32 40"/>
    <path d="M36 24 L36 40"/>
    <path d="M40 24 L40 40"/>
  </g>
  
  <!-- Security lock symbol in center -->
  <g transform="translate(30, 29)">
    <rect x="0" y="2" width="4" height="3" rx="0.5" fill="#ffffff"/>
    <path d="M1 2 Q1 1 2 1 Q3 1 3 2" fill="none" stroke="#ffffff" stroke-width="0.5"/>
    <circle cx="2" cy="3.5" r="0.3" fill="#10b981"/>
  </g>
  
  <!-- Corner notch (CPU orientation marker) -->
  <circle cx="20" cy="20" r="2" fill="#374151"/>
</svg>
