<svg width="45" height="45" viewBox="0 0 64 64" xmlns="http://www.w3.org/2000/svg">
  <!-- USB Stick Body -->
  <rect x="16" y="24" width="32" height="16" rx="2" ry="2" 
        fill="#6b7280" stroke="#4b5563" stroke-width="2"/>
  
  <!-- USB Connector -->
  <rect x="48" y="28" width="8" height="8" rx="1" ry="1" 
        fill="#374151" stroke="#1f2937" stroke-width="1"/>
  
  <!-- USB Connector Metal Contacts -->
  <rect x="50" y="30" width="4" height="1" fill="#d1d5db"/>
  <rect x="50" y="33" width="4" height="1" fill="#d1d5db"/>
  
  <!-- USB Brand/Label Area -->
  <rect x="20" y="28" width="12" height="3" rx="0.5" fill="#e5e7eb"/>
  <rect x="20" y="33" width="16" height="3" rx="0.5" fill="#e5e7eb"/>
  
  <!-- LED Indicator -->
  <circle cx="40" cy="32" r="1.5" fill="#10b981">
    <animate attributeName="opacity" values="1;0.3;1" dur="2s" repeatCount="indefinite"/>
  </circle>
  
  <!-- USB Symbol -->
  <g transform="translate(24, 29)" fill="#4b5563">
    <!-- USB trident symbol -->
    <path d="M3 3 L3 0 M1 1 L5 1 M1 1 L1 3 M5 1 L5 3"/>
    <circle cx="1" cy="3" r="0.5"/>
    <rect x="4.5" y="2.5" width="1" height="1"/>
  </g>
  
  <!-- Lanyard Loop -->
  <circle cx="20" cy="32" r="2" fill="none" stroke="#4b5563" stroke-width="1.5"/>
  
  <!-- Portability Motion Lines -->
  <g stroke="#9ca3af" stroke-width="1" fill="none" opacity="0.4">
    <path d="M12 20 Q16 18 20 20" stroke-dasharray="2,1">
      <animate attributeName="opacity" values="0;0.6;0" dur="2s" repeatCount="indefinite"/>
    </path>
    <path d="M12 44 Q16 46 20 44" stroke-dasharray="2,1">
      <animate attributeName="opacity" values="0;0.6;0" dur="2s" repeatCount="indefinite" begin="1s"/>
    </path>
  </g>
</svg>
